<svg width="681" height="50" viewBox="0 0 681 50" fill="none" xmlns="http://www.w3.org/2000/svg">
<rect x="0.984391" y="0.984391" width="678.334" height="47.8906" rx="14.7659" stroke="#B6B6B6" stroke-width="1.96878"/>
<path d="M96.968 33.4297H93.3167L98.8802 17.3135H103.271L108.827 33.4297H105.176L101.139 20.9963H101.013L96.968 33.4297ZM96.7398 27.095H105.364V29.7548H96.7398V27.095ZM122.227 33.6658C120.984 33.6658 119.914 33.4139 119.017 32.9103C118.125 32.4014 117.438 31.6827 116.955 30.7542C116.472 29.8203 116.231 28.716 116.231 27.4412C116.231 26.1979 116.472 25.1067 116.955 24.1676C117.438 23.2286 118.117 22.4967 118.993 21.9721C119.874 21.4475 120.908 21.1852 122.094 21.1852C122.891 21.1852 123.633 21.3137 124.321 21.5708C125.013 21.8226 125.616 22.2029 126.13 22.7118C126.65 23.2207 127.054 23.8607 127.342 24.6319C127.631 25.3978 127.775 26.2949 127.775 27.3232V28.2439H117.569V26.1664H124.62C124.62 25.6838 124.515 25.2562 124.305 24.8837C124.095 24.5112 123.804 24.2201 123.431 24.0102C123.064 23.7951 122.637 23.6876 122.149 23.6876C121.64 23.6876 121.189 23.8056 120.795 24.0417C120.407 24.2725 120.103 24.5847 119.882 24.9781C119.662 25.3664 119.549 25.7992 119.544 26.2766V28.2517C119.544 28.8498 119.654 29.3665 119.874 29.802C120.1 30.2374 120.417 30.5732 120.827 30.8092C121.236 31.0453 121.721 31.1634 122.282 31.1634C122.655 31.1634 122.996 31.1109 123.305 31.006C123.615 30.901 123.88 30.7437 124.1 30.5338C124.321 30.324 124.488 30.0669 124.604 29.7626L127.704 29.9672C127.547 30.7122 127.224 31.3627 126.736 31.9188C126.254 32.4696 125.629 32.8998 124.864 33.2093C124.103 33.5136 123.224 33.6658 122.227 33.6658ZM140.463 24.7893L137.394 24.9781C137.341 24.7158 137.229 24.4798 137.055 24.2699C136.882 24.0548 136.654 23.8843 136.371 23.7584C136.093 23.6273 135.76 23.5617 135.371 23.5617C134.852 23.5617 134.414 23.6719 134.057 23.8922C133.701 24.1073 133.522 24.3958 133.522 24.7578C133.522 25.0463 133.638 25.2903 133.868 25.4896C134.099 25.689 134.495 25.849 135.057 25.9697L137.244 26.4103C138.419 26.6517 139.296 27.0399 139.873 27.575C140.45 28.1101 140.738 28.8131 140.738 29.6839C140.738 30.4761 140.505 31.1712 140.038 31.7693C139.576 32.3673 138.941 32.8343 138.134 33.17C137.331 33.5005 136.405 33.6658 135.356 33.6658C133.756 33.6658 132.481 33.3326 131.531 32.6664C130.587 31.9949 130.033 31.082 129.871 29.9279L133.168 29.7548C133.268 30.2427 133.509 30.6151 133.892 30.8722C134.275 31.124 134.766 31.2499 135.364 31.2499C135.951 31.2499 136.423 31.1371 136.78 30.9115C137.142 30.6807 137.326 30.3843 137.331 30.0223C137.326 29.718 137.197 29.4688 136.945 29.2747C136.693 29.0754 136.305 28.9232 135.781 28.8183L133.687 28.4013C132.507 28.1652 131.628 27.756 131.051 27.1737C130.479 26.5913 130.194 25.849 130.194 24.9467C130.194 24.1702 130.403 23.5014 130.823 22.94C131.248 22.3787 131.843 21.9459 132.609 21.6416C133.381 21.3373 134.283 21.1852 135.316 21.1852C136.843 21.1852 138.044 21.5078 138.92 22.1531C139.802 22.7984 140.316 23.6771 140.463 24.7893ZM148.754 33.6658C147.516 33.6658 146.451 33.4035 145.559 32.8788C144.672 32.349 143.99 31.6145 143.513 30.6755C143.041 29.7364 142.804 28.6557 142.804 27.4333C142.804 26.1953 143.043 25.1093 143.521 24.1755C144.003 23.2364 144.688 22.5046 145.574 21.98C146.461 21.4501 147.516 21.1852 148.738 21.1852C149.792 21.1852 150.716 21.3767 151.508 21.7596C152.3 22.1426 152.927 22.6803 153.389 23.3728C153.85 24.0653 154.105 24.8785 154.152 25.8123H150.988C150.899 25.209 150.663 24.7237 150.28 24.3565C149.903 23.984 149.407 23.7978 148.793 23.7978C148.274 23.7978 147.82 23.9394 147.432 24.2227C147.049 24.5008 146.75 24.9073 146.534 25.4424C146.319 25.9775 146.212 26.6254 146.212 27.3861C146.212 28.1573 146.317 28.8131 146.527 29.3534C146.742 29.8938 147.043 30.3056 147.432 30.5889C147.82 30.8722 148.274 31.0138 148.793 31.0138C149.176 31.0138 149.52 30.9351 149.824 30.7778C150.133 30.6204 150.388 30.3922 150.587 30.0931C150.792 29.7889 150.926 29.4243 150.988 28.9993H154.152C154.099 29.9226 153.848 30.7358 153.396 31.4388C152.951 32.1365 152.334 32.6821 151.547 33.0756C150.76 33.469 149.829 33.6658 148.754 33.6658ZM162.203 33.6658C160.98 33.6658 159.923 33.4061 159.031 32.8867C158.145 32.3621 157.46 31.6329 156.977 30.6991C156.495 29.76 156.254 28.6714 156.254 27.4333C156.254 26.1848 156.495 25.0936 156.977 24.1598C157.46 23.2207 158.145 22.4915 159.031 21.9721C159.923 21.4475 160.98 21.1852 162.203 21.1852C163.425 21.1852 164.479 21.4475 165.366 21.9721C166.258 22.4915 166.945 23.2207 167.428 24.1598C167.91 25.0936 168.152 26.1848 168.152 27.4333C168.152 28.6714 167.91 29.76 167.428 30.6991C166.945 31.6329 166.258 32.3621 165.366 32.8867C164.479 33.4061 163.425 33.6658 162.203 33.6658ZM162.218 31.0689C162.774 31.0689 163.239 30.9115 163.611 30.5968C163.984 30.2768 164.264 29.8413 164.453 29.2905C164.647 28.7396 164.744 28.1127 164.744 27.4097C164.744 26.7068 164.647 26.0798 164.453 25.529C164.264 24.9781 163.984 24.5427 163.611 24.2227C163.239 23.9027 162.774 23.7427 162.218 23.7427C161.657 23.7427 161.185 23.9027 160.802 24.2227C160.424 24.5427 160.138 24.9781 159.944 25.529C159.755 26.0798 159.661 26.7068 159.661 27.4097C159.661 28.1127 159.755 28.7396 159.944 29.2905C160.138 29.8413 160.424 30.2768 160.802 30.5968C161.185 30.9115 161.657 31.0689 162.218 31.0689ZM174.127 17.3135V33.4297H170.775V17.3135H174.127ZM180.608 26.4418V33.4297H177.256V17.3135H180.513V23.4751H180.655C180.928 22.7617 181.369 22.2029 181.977 21.799C182.586 21.3898 183.349 21.1852 184.267 21.1852C185.106 21.1852 185.838 21.3688 186.463 21.736C187.092 22.098 187.58 22.62 187.926 23.302C188.278 23.9788 188.451 24.7893 188.446 25.7336V33.4297H185.093V26.3317C185.099 25.5867 184.91 25.007 184.527 24.5926C184.149 24.1781 183.619 23.9709 182.937 23.9709C182.481 23.9709 182.077 24.0679 181.725 24.2621C181.379 24.4562 181.106 24.7394 180.907 25.1119C180.713 25.4792 180.613 25.9225 180.608 26.4418ZM194.974 33.6579C194.202 33.6579 193.515 33.5241 192.912 33.2566C192.309 32.9838 191.831 32.5824 191.48 32.0526C191.133 31.5175 190.96 30.8512 190.96 30.0538C190.96 29.3823 191.084 28.8183 191.33 28.3619C191.577 27.9055 191.913 27.5383 192.337 27.2602C192.762 26.9822 193.245 26.7723 193.785 26.6307C194.331 26.489 194.903 26.3894 195.501 26.3317C196.204 26.2582 196.77 26.19 197.201 26.1271C197.631 26.0589 197.943 25.9592 198.137 25.828C198.331 25.6969 198.428 25.5028 198.428 25.2457V25.1985C198.428 24.7001 198.271 24.3145 197.956 24.0417C197.647 23.7689 197.206 23.6325 196.634 23.6325C196.031 23.6325 195.551 23.7663 195.194 24.0338C194.837 24.2962 194.601 24.6267 194.486 25.0254L191.385 24.7736C191.543 24.0391 191.852 23.4043 192.314 22.8692C192.776 22.3288 193.371 21.9144 194.1 21.6259C194.835 21.3321 195.685 21.1852 196.65 21.1852C197.321 21.1852 197.964 21.2639 198.578 21.4213C199.197 21.5786 199.745 21.8226 200.222 22.1531C200.705 22.4836 201.085 22.9085 201.363 23.4279C201.642 23.942 201.781 24.5585 201.781 25.2772V33.4297H198.601V31.7535H198.507C198.313 32.1313 198.053 32.4644 197.728 32.7529C197.403 33.0362 197.012 33.2592 196.555 33.4218C196.099 33.5792 195.572 33.6579 194.974 33.6579ZM195.934 31.3443C196.427 31.3443 196.862 31.2473 197.24 31.0532C197.618 30.8538 197.914 30.5863 198.129 30.2505C198.344 29.9148 198.452 29.5344 198.452 29.1095V27.8268C198.347 27.895 198.203 27.958 198.019 28.0157C197.841 28.0681 197.639 28.118 197.413 28.1652C197.188 28.2072 196.962 28.2465 196.736 28.2832C196.511 28.3147 196.306 28.3436 196.123 28.3698C195.729 28.4275 195.385 28.5193 195.092 28.6452C194.798 28.7711 194.57 28.9416 194.407 29.1567C194.244 29.3665 194.163 29.6289 194.163 29.9436C194.163 30.4 194.328 30.7489 194.659 30.9902C194.995 31.2263 195.42 31.3443 195.934 31.3443ZM215.905 33.6658C214.662 33.6658 213.591 33.4139 212.694 32.9103C211.802 32.4014 211.115 31.6827 210.633 30.7542C210.15 29.8203 209.909 28.716 209.909 27.4412C209.909 26.1979 210.15 25.1067 210.633 24.1676C211.115 23.2286 211.795 22.4967 212.671 21.9721C213.552 21.4475 214.586 21.1852 215.771 21.1852C216.569 21.1852 217.311 21.3137 217.998 21.5708C218.691 21.8226 219.294 22.2029 219.808 22.7118C220.327 23.2207 220.731 23.8607 221.02 24.6319C221.308 25.3978 221.453 26.2949 221.453 27.3232V28.2439H211.246V26.1664H218.297C218.297 25.6838 218.192 25.2562 217.982 24.8837C217.773 24.5112 217.481 24.2201 217.109 24.0102C216.742 23.7951 216.314 23.6876 215.826 23.6876C215.317 23.6876 214.866 23.8056 214.473 24.0417C214.085 24.2725 213.78 24.5847 213.56 24.9781C213.34 25.3664 213.227 25.7992 213.222 26.2766V28.2517C213.222 28.8498 213.332 29.3665 213.552 29.802C213.778 30.2374 214.095 30.5732 214.504 30.8092C214.913 31.0453 215.399 31.1634 215.96 31.1634C216.332 31.1634 216.673 31.1109 216.983 31.006C217.293 30.901 217.557 30.7437 217.778 30.5338C217.998 30.324 218.166 30.0669 218.281 29.7626L221.382 29.9672C221.225 30.7122 220.902 31.3627 220.414 31.9188C219.931 32.4696 219.307 32.8998 218.541 33.2093C217.78 33.5136 216.902 33.6658 215.905 33.6658ZM214.488 19.7845L216.157 16.204H219.257L216.857 19.7845H214.488ZM239.712 24.7893L236.643 24.9781C236.591 24.7158 236.478 24.4798 236.305 24.2699C236.132 24.0548 235.904 23.8843 235.62 23.7584C235.342 23.6273 235.009 23.5617 234.621 23.5617C234.102 23.5617 233.664 23.6719 233.307 23.8922C232.95 24.1073 232.772 24.3958 232.772 24.7578C232.772 25.0463 232.887 25.2903 233.118 25.4896C233.349 25.689 233.745 25.849 234.306 25.9697L236.494 26.4103C237.669 26.6517 238.545 27.0399 239.122 27.575C239.699 28.1101 239.988 28.8131 239.988 29.6839C239.988 30.4761 239.754 31.1712 239.287 31.7693C238.826 32.3673 238.191 32.8343 237.383 33.17C236.58 33.5005 235.654 33.6658 234.605 33.6658C233.005 33.6658 231.73 33.3326 230.781 32.6664C229.837 31.9949 229.283 31.082 229.12 29.9279L232.418 29.7548C232.517 30.2427 232.759 30.6151 233.142 30.8722C233.525 31.124 234.015 31.2499 234.613 31.2499C235.201 31.2499 235.673 31.1371 236.03 30.9115C236.392 30.6807 236.575 30.3843 236.58 30.0223C236.575 29.718 236.447 29.4688 236.195 29.2747C235.943 29.0754 235.555 28.9232 235.03 28.8183L232.937 28.4013C231.757 28.1652 230.878 27.756 230.301 27.1737C229.729 26.5913 229.443 25.849 229.443 24.9467C229.443 24.1702 229.653 23.5014 230.073 22.94C230.498 22.3787 231.093 21.9459 231.859 21.6416C232.63 21.3373 233.532 21.1852 234.566 21.1852C236.093 21.1852 237.294 21.5078 238.17 22.1531C239.051 22.7984 239.565 23.6771 239.712 24.7893ZM250.293 28.2832V21.3426H253.645V33.4297H250.427V31.2342H250.301C250.028 31.9424 249.574 32.5116 248.94 32.9418C248.31 33.372 247.541 33.5871 246.634 33.5871C245.826 33.5871 245.115 33.4035 244.501 33.0362C243.888 32.669 243.408 32.147 243.061 31.4703C242.72 30.7935 242.547 29.983 242.542 29.0387V21.3426H245.894V28.4406C245.899 29.1541 246.091 29.718 246.469 30.1325C246.846 30.5469 247.353 30.7542 247.987 30.7542C248.391 30.7542 248.769 30.6623 249.121 30.4787C249.472 30.2899 249.755 30.0118 249.97 29.6446C250.191 29.2774 250.298 28.8236 250.293 28.2832ZM260.217 33.6579C259.446 33.6579 258.758 33.5241 258.155 33.2566C257.552 32.9838 257.074 32.5824 256.723 32.0526C256.377 31.5175 256.203 30.8512 256.203 30.0538C256.203 29.3823 256.327 28.8183 256.573 28.3619C256.82 27.9055 257.156 27.5383 257.581 27.2602C258.005 26.9822 258.488 26.7723 259.028 26.6307C259.574 26.489 260.146 26.3894 260.744 26.3317C261.447 26.2582 262.014 26.19 262.444 26.1271C262.874 26.0589 263.186 25.9592 263.38 25.828C263.574 25.6969 263.671 25.5028 263.671 25.2457V25.1985C263.671 24.7001 263.514 24.3145 263.199 24.0417C262.89 23.7689 262.449 23.6325 261.877 23.6325C261.274 23.6325 260.794 23.7663 260.437 24.0338C260.08 24.2962 259.844 24.6267 259.729 25.0254L256.628 24.7736C256.786 24.0391 257.095 23.4043 257.557 22.8692C258.019 22.3288 258.614 21.9144 259.343 21.6259C260.078 21.3321 260.928 21.1852 261.893 21.1852C262.564 21.1852 263.207 21.2639 263.821 21.4213C264.44 21.5786 264.988 21.8226 265.465 22.1531C265.948 22.4836 266.328 22.9085 266.607 23.4279C266.885 23.942 267.024 24.5585 267.024 25.2772V33.4297H263.844V31.7535H263.75C263.556 32.1313 263.296 32.4644 262.971 32.7529C262.646 33.0362 262.255 33.2592 261.798 33.4218C261.342 33.5792 260.815 33.6579 260.217 33.6579ZM261.177 31.3443C261.67 31.3443 262.105 31.2473 262.483 31.0532C262.861 30.8538 263.157 30.5863 263.372 30.2505C263.587 29.9148 263.695 29.5344 263.695 29.1095V27.8268C263.59 27.895 263.446 27.958 263.262 28.0157C263.084 28.0681 262.882 28.118 262.656 28.1652C262.431 28.2072 262.205 28.2465 261.979 28.2832C261.754 28.3147 261.549 28.3436 261.366 28.3698C260.972 28.4275 260.629 28.5193 260.335 28.6452C260.041 28.7711 259.813 28.9416 259.65 29.1567C259.488 29.3665 259.406 29.6289 259.406 29.9436C259.406 30.4 259.571 30.7489 259.902 30.9902C260.238 31.2263 260.663 31.3443 261.177 31.3443ZM273.711 31.2263L273.624 32.0919C273.556 32.7844 273.425 33.4743 273.231 34.1615C273.042 34.854 272.843 35.4809 272.633 36.0423C272.428 36.6036 272.263 37.0443 272.137 37.3643H269.965C270.044 37.0548 270.152 36.622 270.288 36.0659C270.424 35.515 270.553 34.896 270.673 34.2087C270.794 33.5215 270.87 32.8211 270.902 32.1077L270.941 31.2263H273.711ZM285.481 33.6579C284.709 33.6579 284.022 33.5241 283.419 33.2566C282.815 32.9838 282.338 32.5824 281.987 32.0526C281.64 31.5175 281.467 30.8512 281.467 30.0538C281.467 29.3823 281.591 28.8183 281.837 28.3619C282.084 27.9055 282.419 27.5383 282.844 27.2602C283.269 26.9822 283.752 26.7723 284.292 26.6307C284.838 26.489 285.41 26.3894 286.008 26.3317C286.711 26.2582 287.277 26.19 287.708 26.1271C288.138 26.0589 288.45 25.9592 288.644 25.828C288.838 25.6969 288.935 25.5028 288.935 25.2457V25.1985C288.935 24.7001 288.778 24.3145 288.463 24.0417C288.153 23.7689 287.713 23.6325 287.141 23.6325C286.538 23.6325 286.058 23.7663 285.701 24.0338C285.344 24.2962 285.108 24.6267 284.993 25.0254L281.892 24.7736C282.05 24.0391 282.359 23.4043 282.821 22.8692C283.282 22.3288 283.878 21.9144 284.607 21.6259C285.342 21.3321 286.191 21.1852 287.157 21.1852C287.828 21.1852 288.471 21.2639 289.085 21.4213C289.704 21.5786 290.252 21.8226 290.729 22.1531C291.212 22.4836 291.592 22.9085 291.87 23.4279C292.148 23.942 292.287 24.5585 292.287 25.2772V33.4297H289.108V31.7535H289.014C288.82 32.1313 288.56 32.4644 288.235 32.7529C287.909 33.0362 287.519 33.2592 287.062 33.4218C286.606 33.5792 286.079 33.6579 285.481 33.6579ZM286.441 31.3443C286.934 31.3443 287.369 31.2473 287.747 31.0532C288.125 30.8538 288.421 30.5863 288.636 30.2505C288.851 29.9148 288.959 29.5344 288.959 29.1095V27.8268C288.854 27.895 288.71 27.958 288.526 28.0157C288.348 28.0681 288.146 28.118 287.92 28.1652C287.694 28.2072 287.469 28.2465 287.243 28.2832C287.018 28.3147 286.813 28.3436 286.629 28.3698C286.236 28.4275 285.892 28.5193 285.599 28.6452C285.305 28.7711 285.077 28.9416 284.914 29.1567C284.751 29.3665 284.67 29.6289 284.67 29.9436C284.67 30.4 284.835 30.7489 285.166 30.9902C285.502 31.2263 285.926 31.3443 286.441 31.3443ZM305.388 24.7893L302.319 24.9781C302.267 24.7158 302.154 24.4798 301.981 24.2699C301.808 24.0548 301.58 23.8843 301.296 23.7584C301.018 23.6273 300.685 23.5617 300.297 23.5617C299.777 23.5617 299.339 23.6719 298.983 23.8922C298.626 24.1073 298.448 24.3958 298.448 24.7578C298.448 25.0463 298.563 25.2903 298.794 25.4896C299.025 25.689 299.421 25.849 299.982 25.9697L302.17 26.4103C303.345 26.6517 304.221 27.0399 304.798 27.575C305.375 28.1101 305.664 28.8131 305.664 29.6839C305.664 30.4761 305.43 31.1712 304.963 31.7693C304.502 32.3673 303.867 32.8343 303.059 33.17C302.256 33.5005 301.33 33.6658 300.281 33.6658C298.681 33.6658 297.406 33.3326 296.457 32.6664C295.512 31.9949 294.959 31.082 294.796 29.9279L298.093 29.7548C298.193 30.2427 298.434 30.6151 298.817 30.8722C299.2 31.124 299.691 31.2499 300.289 31.2499C300.877 31.2499 301.349 31.1371 301.705 30.9115C302.067 30.6807 302.251 30.3843 302.256 30.0223C302.251 29.718 302.122 29.4688 301.871 29.2747C301.619 29.0754 301.231 28.9232 300.706 28.8183L298.613 28.4013C297.432 28.1652 296.554 27.756 295.977 27.1737C295.405 26.5913 295.119 25.849 295.119 24.9467C295.119 24.1702 295.329 23.5014 295.748 22.94C296.173 22.3787 296.769 21.9459 297.535 21.6416C298.306 21.3373 299.208 21.1852 300.242 21.1852C301.768 21.1852 302.97 21.5078 303.846 22.1531C304.727 22.7984 305.241 23.6771 305.388 24.7893ZM319.251 33.6658C318.013 33.6658 316.948 33.4035 316.056 32.8788C315.169 32.349 314.487 31.6145 314.01 30.6755C313.538 29.7364 313.302 28.6557 313.302 27.4333C313.302 26.1953 313.541 25.1093 314.018 24.1755C314.501 23.2364 315.185 22.5046 316.072 21.98C316.958 21.4501 318.013 21.1852 319.235 21.1852C320.29 21.1852 321.213 21.3767 322.005 21.7596C322.797 22.1426 323.424 22.6803 323.886 23.3728C324.348 24.0653 324.602 24.8785 324.649 25.8123H321.486C321.397 25.209 321.161 24.7237 320.778 24.3565C320.4 23.984 319.904 23.7978 319.29 23.7978C318.771 23.7978 318.317 23.9394 317.929 24.2227C317.546 24.5008 317.247 24.9073 317.032 25.4424C316.817 25.9775 316.709 26.6254 316.709 27.3861C316.709 28.1573 316.814 28.8131 317.024 29.3534C317.239 29.8938 317.541 30.3056 317.929 30.5889C318.317 30.8722 318.771 31.0138 319.29 31.0138C319.673 31.0138 320.017 30.9351 320.321 30.7778C320.631 30.6204 320.885 30.3922 321.084 30.0931C321.289 29.7889 321.423 29.4243 321.486 28.9993H324.649C324.597 29.9226 324.345 30.7358 323.894 31.4388C323.448 32.1365 322.831 32.6821 322.045 33.0756C321.258 33.469 320.326 33.6658 319.251 33.6658ZM332.7 33.6658C331.478 33.6658 330.421 33.4061 329.529 32.8867C328.642 32.3621 327.957 31.6329 327.475 30.6991C326.992 29.76 326.751 28.6714 326.751 27.4333C326.751 26.1848 326.992 25.0936 327.475 24.1598C327.957 23.2207 328.642 22.4915 329.529 21.9721C330.421 21.4475 331.478 21.1852 332.7 21.1852C333.922 21.1852 334.977 21.4475 335.863 21.9721C336.755 22.4915 337.442 23.2207 337.925 24.1598C338.408 25.0936 338.649 26.1848 338.649 27.4333C338.649 28.6714 338.408 29.76 337.925 30.6991C337.442 31.6329 336.755 32.3621 335.863 32.8867C334.977 33.4061 333.922 33.6658 332.7 33.6658ZM332.716 31.0689C333.272 31.0689 333.736 30.9115 334.109 30.5968C334.481 30.2768 334.762 29.8413 334.951 29.2905C335.145 28.7396 335.242 28.1127 335.242 27.4097C335.242 26.7068 335.145 26.0798 334.951 25.529C334.762 24.9781 334.481 24.5427 334.109 24.2227C333.736 23.9027 333.272 23.7427 332.716 23.7427C332.154 23.7427 331.682 23.9027 331.299 24.2227C330.922 24.5427 330.636 24.9781 330.442 25.529C330.253 26.0798 330.158 26.7068 330.158 27.4097C330.158 28.1127 330.253 28.7396 330.442 29.2905C330.636 29.8413 330.922 30.2768 331.299 30.5968C331.682 30.9115 332.154 31.0689 332.716 31.0689ZM344.624 26.4418V33.4297H341.272V21.3426H344.467V23.4751H344.609C344.876 22.7721 345.325 22.2161 345.954 21.8069C346.584 21.3924 347.347 21.1852 348.244 21.1852C349.084 21.1852 349.815 21.3688 350.44 21.736C351.064 22.1033 351.549 22.6279 351.896 23.3099C352.242 23.9866 352.415 24.7945 352.415 25.7336V33.4297H349.063V26.3317C349.068 25.5919 348.879 25.0149 348.496 24.6004C348.113 24.1807 347.586 23.9709 346.914 23.9709C346.463 23.9709 346.064 24.0679 345.718 24.2621C345.377 24.4562 345.11 24.7394 344.916 25.1119C344.727 25.4792 344.63 25.9225 344.624 26.4418ZM365.557 24.7893L362.488 24.9781C362.436 24.7158 362.323 24.4798 362.15 24.2699C361.977 24.0548 361.748 23.8843 361.465 23.7584C361.187 23.6273 360.854 23.5617 360.466 23.5617C359.946 23.5617 359.508 23.6719 359.151 23.8922C358.795 24.1073 358.616 24.3958 358.616 24.7578C358.616 25.0463 358.732 25.2903 358.963 25.4896C359.193 25.689 359.59 25.849 360.151 25.9697L362.338 26.4103C363.514 26.6517 364.39 27.0399 364.967 27.575C365.544 28.1101 365.832 28.8131 365.832 29.6839C365.832 30.4761 365.599 31.1712 365.132 31.7693C364.67 32.3673 364.036 32.8343 363.228 33.17C362.425 33.5005 361.499 33.6658 360.45 33.6658C358.85 33.6658 357.575 33.3326 356.625 32.6664C355.681 31.9949 355.128 31.082 354.965 29.9279L358.262 29.7548C358.362 30.2427 358.603 30.6151 358.986 30.8722C359.369 31.124 359.86 31.2499 360.458 31.2499C361.045 31.2499 361.517 31.1371 361.874 30.9115C362.236 30.6807 362.42 30.3843 362.425 30.0223C362.42 29.718 362.291 29.4688 362.039 29.2747C361.788 29.0754 361.399 28.9232 360.875 28.8183L358.782 28.4013C357.601 28.1652 356.723 27.756 356.145 27.1737C355.574 26.5913 355.288 25.849 355.288 24.9467C355.288 24.1702 355.498 23.5014 355.917 22.94C356.342 22.3787 356.938 21.9459 357.704 21.6416C358.475 21.3373 359.377 21.1852 360.411 21.1852C361.937 21.1852 363.139 21.5078 364.015 22.1531C364.896 22.7984 365.41 23.6771 365.557 24.7893ZM373.895 33.6658C372.652 33.6658 371.581 33.4139 370.684 32.9103C369.793 32.4014 369.105 31.6827 368.623 30.7542C368.14 29.8203 367.899 28.716 367.899 27.4412C367.899 26.1979 368.14 25.1067 368.623 24.1676C369.105 23.2286 369.785 22.4967 370.661 21.9721C371.542 21.4475 372.576 21.1852 373.761 21.1852C374.559 21.1852 375.301 21.3137 375.988 21.5708C376.681 21.8226 377.284 22.2029 377.798 22.7118C378.318 23.2207 378.721 23.8607 379.01 24.6319C379.299 25.3978 379.443 26.2949 379.443 27.3232V28.2439H369.236V26.1664H376.287C376.287 25.6838 376.182 25.2562 375.972 24.8837C375.763 24.5112 375.471 24.2201 375.099 24.0102C374.732 23.7951 374.304 23.6876 373.816 23.6876C373.307 23.6876 372.856 23.8056 372.463 24.0417C372.075 24.2725 371.77 24.5847 371.55 24.9781C371.33 25.3664 371.217 25.7992 371.212 26.2766V28.2517C371.212 28.8498 371.322 29.3665 371.542 29.802C371.768 30.2374 372.085 30.5732 372.494 30.8092C372.903 31.0453 373.389 31.1634 373.95 31.1634C374.323 31.1634 374.664 31.1109 374.973 31.006C375.283 30.901 375.548 30.7437 375.768 30.5338C375.988 30.324 376.156 30.0669 376.272 29.7626L379.372 29.9672C379.215 30.7122 378.892 31.3627 378.404 31.9188C377.921 32.4696 377.297 32.8998 376.531 33.2093C375.771 33.5136 374.892 33.6658 373.895 33.6658ZM390.061 37.9624V31.4939H389.959C389.801 31.8296 389.578 32.1627 389.29 32.4933C389.006 32.8185 388.637 33.0887 388.18 33.3038C387.729 33.5189 387.178 33.6264 386.528 33.6264C385.61 33.6264 384.778 33.3903 384.033 32.9182C383.293 32.4408 382.706 31.7404 382.27 30.8171C381.84 29.8885 381.625 28.7501 381.625 27.4019C381.625 26.0169 381.848 24.8654 382.294 23.9473C382.74 23.024 383.333 22.3341 384.072 21.8777C384.817 21.416 385.633 21.1852 386.52 21.1852C387.196 21.1852 387.76 21.3006 388.212 21.5314C388.668 21.757 389.035 22.0403 389.313 22.3813C389.597 22.7171 389.812 23.0476 389.959 23.3728H390.1V21.3426H393.405V37.9624H390.061ZM387.59 30.9588C388.13 30.9588 388.587 30.8119 388.959 30.5181C389.337 30.219 389.625 29.802 389.825 29.2669C390.029 28.7318 390.132 28.1049 390.132 27.3861C390.132 26.6674 390.032 26.0431 389.833 25.5133C389.633 24.9834 389.345 24.5742 388.967 24.2857C388.589 23.9971 388.13 23.8529 387.59 23.8529C387.039 23.8529 386.575 24.0024 386.197 24.3014C385.819 24.6004 385.533 25.0149 385.339 25.5447C385.145 26.0746 385.048 26.6884 385.048 27.3861C385.048 28.0891 385.145 28.7108 385.339 29.2511C385.539 29.7862 385.825 30.2059 386.197 30.5102C386.575 30.8092 387.039 30.9588 387.59 30.9588ZM404.291 28.2832V21.3426H407.643V33.4297H404.425V31.2342H404.299C404.026 31.9424 403.572 32.5116 402.937 32.9418C402.308 33.372 401.539 33.5871 400.632 33.5871C399.824 33.5871 399.113 33.4035 398.499 33.0362C397.885 32.669 397.405 32.147 397.059 31.4703C396.718 30.7935 396.545 29.983 396.54 29.0387V21.3426H399.892V28.4406C399.897 29.1541 400.089 29.718 400.467 30.1325C400.844 30.5469 401.35 30.7542 401.985 30.7542C402.389 30.7542 402.767 30.6623 403.118 30.4787C403.47 30.2899 403.753 30.0118 403.968 29.6446C404.189 29.2774 404.296 28.8236 404.291 28.2832ZM416.276 33.6658C415.033 33.6658 413.963 33.4139 413.066 32.9103C412.174 32.4014 411.487 31.6827 411.004 30.7542C410.521 29.8203 410.28 28.716 410.28 27.4412C410.28 26.1979 410.521 25.1067 411.004 24.1676C411.487 23.2286 412.166 22.4967 413.042 21.9721C413.923 21.4475 414.957 21.1852 416.143 21.1852C416.94 21.1852 417.682 21.3137 418.37 21.5708C419.062 21.8226 419.665 22.2029 420.179 22.7118C420.699 23.2207 421.103 23.8607 421.391 24.6319C421.68 25.3978 421.824 26.2949 421.824 27.3232V28.2439H411.618V26.1664H418.669C418.669 25.6838 418.564 25.2562 418.354 24.8837C418.144 24.5112 417.853 24.2201 417.48 24.0102C417.113 23.7951 416.686 23.6876 416.198 23.6876C415.689 23.6876 415.238 23.8056 414.844 24.0417C414.456 24.2725 414.152 24.5847 413.931 24.9781C413.711 25.3664 413.598 25.7992 413.593 26.2766V28.2517C413.593 28.8498 413.703 29.3665 413.923 29.802C414.149 30.2374 414.466 30.5732 414.876 30.8092C415.285 31.0453 415.77 31.1634 416.331 31.1634C416.704 31.1634 417.045 31.1109 417.354 31.006C417.664 30.901 417.929 30.7437 418.149 30.5338C418.37 30.324 418.537 30.0669 418.653 29.7626L421.753 29.9672C421.596 30.7122 421.273 31.3627 420.785 31.9188C420.303 32.4696 419.678 32.8998 418.912 33.2093C418.152 33.5136 417.273 33.6658 416.276 33.6658ZM417.646 19.8946L416.064 17.9745L414.482 19.8946H411.626V19.7845L414.813 16.322H417.307L420.502 19.7845V19.8946H417.646ZM427.807 26.4418V33.4297H424.455V21.3426H427.65V23.4751H427.792C428.059 22.7721 428.508 22.2161 429.137 21.8069C429.767 21.3924 430.53 21.1852 431.427 21.1852C432.266 21.1852 432.998 21.3688 433.623 21.736C434.247 22.1033 434.732 22.6279 435.078 23.3099C435.425 23.9866 435.598 24.7945 435.598 25.7336V33.4297H432.246V26.3317C432.251 25.5919 432.062 25.0149 431.679 24.6004C431.296 24.1807 430.769 23.9709 430.097 23.9709C429.646 23.9709 429.247 24.0679 428.901 24.2621C428.56 24.4562 428.293 24.7394 428.098 25.1119C427.91 25.4792 427.813 25.9225 427.807 26.4418ZM444.144 33.6658C442.906 33.6658 441.841 33.4035 440.949 32.8788C440.063 32.349 439.381 31.6145 438.903 30.6755C438.431 29.7364 438.195 28.6557 438.195 27.4333C438.195 26.1953 438.434 25.1093 438.911 24.1755C439.394 23.2364 440.079 22.5046 440.965 21.98C441.852 21.4501 442.906 21.1852 444.129 21.1852C445.183 21.1852 446.106 21.3767 446.899 21.7596C447.691 22.1426 448.318 22.6803 448.779 23.3728C449.241 24.0653 449.495 24.8785 449.543 25.8123H446.379C446.29 25.209 446.054 24.7237 445.671 24.3565C445.293 23.984 444.797 23.7978 444.184 23.7978C443.664 23.7978 443.21 23.9394 442.822 24.2227C442.439 24.5008 442.14 24.9073 441.925 25.4424C441.71 25.9775 441.603 26.6254 441.603 27.3861C441.603 28.1573 441.707 28.8131 441.917 29.3534C442.132 29.8938 442.434 30.3056 442.822 30.5889C443.21 30.8722 443.664 31.0138 444.184 31.0138C444.567 31.0138 444.91 30.9351 445.215 30.7778C445.524 30.6204 445.778 30.3922 445.978 30.0931C446.182 29.7889 446.316 29.4243 446.379 28.9993H449.543C449.49 29.9226 449.238 30.7358 448.787 31.4388C448.341 32.1365 447.725 32.6821 446.938 33.0756C446.151 33.469 445.22 33.6658 444.144 33.6658ZM452.132 33.4297V21.3426H455.484V33.4297H452.132ZM453.816 19.7845C453.318 19.7845 452.89 19.6192 452.533 19.2887C452.182 18.953 452.006 18.5516 452.006 18.0847C452.006 17.6231 452.182 17.227 452.533 16.8965C452.89 16.5607 453.318 16.3928 453.816 16.3928C454.315 16.3928 454.739 16.5607 455.091 16.8965C455.448 17.227 455.626 17.6231 455.626 18.0847C455.626 18.5516 455.448 18.953 455.091 19.2887C454.739 19.6192 454.315 19.7845 453.816 19.7845ZM462.06 33.6579C461.288 33.6579 460.601 33.5241 459.998 33.2566C459.395 32.9838 458.917 32.5824 458.566 32.0526C458.219 31.5175 458.046 30.8512 458.046 30.0538C458.046 29.3823 458.17 28.8183 458.416 28.3619C458.663 27.9055 458.999 27.5383 459.423 27.2602C459.848 26.9822 460.331 26.7723 460.871 26.6307C461.417 26.489 461.989 26.3894 462.587 26.3317C463.29 26.2582 463.856 26.19 464.287 26.1271C464.717 26.0589 465.029 25.9592 465.223 25.828C465.417 25.6969 465.514 25.5028 465.514 25.2457V25.1985C465.514 24.7001 465.357 24.3145 465.042 24.0417C464.733 23.7689 464.292 23.6325 463.72 23.6325C463.117 23.6325 462.637 23.7663 462.28 24.0338C461.923 24.2962 461.687 24.6267 461.572 25.0254L458.471 24.7736C458.629 24.0391 458.938 23.4043 459.4 22.8692C459.862 22.3288 460.457 21.9144 461.186 21.6259C461.921 21.3321 462.771 21.1852 463.736 21.1852C464.407 21.1852 465.05 21.2639 465.664 21.4213C466.283 21.5786 466.831 21.8226 467.308 22.1531C467.791 22.4836 468.171 22.9085 468.449 23.4279C468.728 23.942 468.867 24.5585 468.867 25.2772V33.4297H465.687V31.7535H465.593C465.399 32.1313 465.139 32.4644 464.814 32.7529C464.489 33.0362 464.098 33.2592 463.641 33.4218C463.185 33.5792 462.658 33.6579 462.06 33.6579ZM463.02 31.3443C463.513 31.3443 463.948 31.2473 464.326 31.0532C464.704 30.8538 465 30.5863 465.215 30.2505C465.43 29.9148 465.538 29.5344 465.538 29.1095V27.8268C465.433 27.895 465.289 27.958 465.105 28.0157C464.927 28.0681 464.725 28.118 464.499 28.1652C464.274 28.2072 464.048 28.2465 463.822 28.2832C463.597 28.3147 463.392 28.3436 463.209 28.3698C462.815 28.4275 462.471 28.5193 462.178 28.6452C461.884 28.7711 461.656 28.9416 461.493 29.1567C461.33 29.3665 461.249 29.6289 461.249 29.9436C461.249 30.4 461.414 30.7489 461.745 30.9902C462.081 31.2263 462.506 31.3443 463.02 31.3443ZM481.967 24.7893L478.898 24.9781C478.846 24.7158 478.733 24.4798 478.56 24.2699C478.387 24.0548 478.159 23.8843 477.875 23.7584C477.597 23.6273 477.264 23.5617 476.876 23.5617C476.357 23.5617 475.919 23.6719 475.562 23.8922C475.205 24.1073 475.027 24.3958 475.027 24.7578C475.027 25.0463 475.142 25.2903 475.373 25.4896C475.604 25.689 476 25.849 476.561 25.9697L478.749 26.4103C479.924 26.6517 480.8 27.0399 481.377 27.575C481.954 28.1101 482.243 28.8131 482.243 29.6839C482.243 30.4761 482.009 31.1712 481.542 31.7693C481.081 32.3673 480.446 32.8343 479.638 33.17C478.835 33.5005 477.909 33.6658 476.86 33.6658C475.26 33.6658 473.985 33.3326 473.036 32.6664C472.091 31.9949 471.538 31.082 471.375 29.9279L474.673 29.7548C474.772 30.2427 475.014 30.6151 475.397 30.8722C475.78 31.124 476.27 31.2499 476.868 31.2499C477.456 31.2499 477.928 31.1371 478.285 30.9115C478.647 30.6807 478.83 30.3843 478.835 30.0223C478.83 29.718 478.702 29.4688 478.45 29.2747C478.198 29.0754 477.81 28.9232 477.285 28.8183L475.192 28.4013C474.012 28.1652 473.133 27.756 472.556 27.1737C471.984 26.5913 471.698 25.849 471.698 24.9467C471.698 24.1702 471.908 23.5014 472.328 22.94C472.752 22.3787 473.348 21.9459 474.114 21.6416C474.885 21.3373 475.787 21.1852 476.821 21.1852C478.348 21.1852 479.549 21.5078 480.425 22.1531C481.306 22.7984 481.82 23.6771 481.967 24.7893ZM496.798 21.3426V23.8607H489.519V21.3426H496.798ZM491.172 18.4467H494.524V29.7154C494.524 30.0249 494.571 30.2663 494.665 30.4394C494.76 30.6073 494.891 30.7253 495.059 30.7935C495.232 30.8617 495.431 30.8958 495.657 30.8958C495.814 30.8958 495.972 30.8827 496.129 30.8565C496.287 30.825 496.407 30.8014 496.491 30.7856L497.018 33.2802C496.85 33.3326 496.614 33.393 496.31 33.4612C496.006 33.5346 495.636 33.5792 495.201 33.5949C494.393 33.6264 493.684 33.5189 493.076 33.2723C492.473 33.0257 492.003 32.6428 491.667 32.1234C491.332 31.604 491.166 30.9483 491.172 30.1561V18.4467ZM502.872 33.6579C502.1 33.6579 501.413 33.5241 500.81 33.2566C500.207 32.9838 499.729 32.5824 499.378 32.0526C499.031 31.5175 498.858 30.8512 498.858 30.0538C498.858 29.3823 498.982 28.8183 499.228 28.3619C499.475 27.9055 499.81 27.5383 500.235 27.2602C500.66 26.9822 501.143 26.7723 501.683 26.6307C502.229 26.489 502.801 26.3894 503.399 26.3317C504.102 26.2582 504.668 26.19 505.099 26.1271C505.529 26.0589 505.841 25.9592 506.035 25.828C506.229 25.6969 506.326 25.5028 506.326 25.2457V25.1985C506.326 24.7001 506.169 24.3145 505.854 24.0417C505.545 23.7689 505.104 23.6325 504.532 23.6325C503.929 23.6325 503.449 23.7663 503.092 24.0338C502.735 24.2962 502.499 24.6267 502.384 25.0254L499.283 24.7736C499.441 24.0391 499.75 23.4043 500.212 22.8692C500.673 22.3288 501.269 21.9144 501.998 21.6259C502.733 21.3321 503.582 21.1852 504.548 21.1852C505.219 21.1852 505.862 21.2639 506.476 21.4213C507.095 21.5786 507.643 21.8226 508.12 22.1531C508.603 22.4836 508.983 22.9085 509.261 23.4279C509.539 23.942 509.678 24.5585 509.678 25.2772V33.4297H506.499V31.7535H506.405C506.211 32.1313 505.951 32.4644 505.626 32.7529C505.301 33.0362 504.91 33.2592 504.453 33.4218C503.997 33.5792 503.47 33.6579 502.872 33.6579ZM503.832 31.3443C504.325 31.3443 504.76 31.2473 505.138 31.0532C505.516 30.8538 505.812 30.5863 506.027 30.2505C506.242 29.9148 506.35 29.5344 506.35 29.1095V27.8268C506.245 27.895 506.101 27.958 505.917 28.0157C505.739 28.0681 505.537 28.118 505.311 28.1652C505.085 28.2072 504.86 28.2465 504.634 28.2832C504.409 28.3147 504.204 28.3436 504.021 28.3698C503.627 28.4275 503.283 28.5193 502.99 28.6452C502.696 28.7711 502.468 28.9416 502.305 29.1567C502.142 29.3665 502.061 29.6289 502.061 29.9436C502.061 30.4 502.226 30.7489 502.557 30.9902C502.893 31.2263 503.318 31.3443 503.832 31.3443ZM512.722 33.4297V21.3426H515.917V23.4751H516.059C516.311 22.7669 516.73 22.2082 517.318 21.799C517.906 21.3898 518.609 21.1852 519.427 21.1852C520.256 21.1852 520.962 21.3924 521.544 21.8069C522.126 22.2161 522.514 22.7721 522.708 23.4751H522.834C523.081 22.7826 523.527 22.2292 524.172 21.8147C524.823 21.395 525.591 21.1852 526.478 21.1852C527.606 21.1852 528.521 21.5445 529.224 22.2633C529.932 22.9767 530.287 23.9893 530.287 25.3008V33.4297H526.942V25.9618C526.942 25.2903 526.764 24.7867 526.407 24.4509C526.05 24.1152 525.604 23.9473 525.069 23.9473C524.461 23.9473 523.986 24.1414 523.645 24.5296C523.304 24.9126 523.133 25.4188 523.133 26.0484V33.4297H519.883V25.891C519.883 25.2982 519.713 24.826 519.372 24.4745C519.036 24.123 518.593 23.9473 518.042 23.9473C517.67 23.9473 517.334 24.0417 517.035 24.2306C516.741 24.4142 516.508 24.6739 516.334 25.0096C516.161 25.3401 516.075 25.7283 516.075 26.1743V33.4297H512.722ZM533.441 33.4297V17.3135H536.793V23.3728H536.895C537.042 23.0476 537.255 22.7171 537.533 22.3813C537.816 22.0403 538.183 21.757 538.634 21.5314C539.091 21.3006 539.657 21.1852 540.334 21.1852C541.215 21.1852 542.029 21.416 542.774 21.8777C543.519 22.3341 544.114 23.024 544.56 23.9473C545.006 24.8654 545.229 26.0169 545.229 27.4019C545.229 28.7501 545.011 29.8885 544.576 30.8171C544.145 31.7404 543.558 32.4408 542.813 32.9182C542.073 33.3903 541.244 33.6264 540.326 33.6264C539.676 33.6264 539.122 33.5189 538.666 33.3038C538.215 33.0887 537.845 32.8185 537.556 32.4933C537.268 32.1627 537.047 31.8296 536.895 31.4939H536.746V33.4297H533.441ZM536.722 27.3861C536.722 28.1049 536.822 28.7318 537.021 29.2669C537.221 29.802 537.509 30.219 537.887 30.5181C538.264 30.8119 538.724 30.9588 539.264 30.9588C539.809 30.9588 540.271 30.8092 540.649 30.5102C541.027 30.2059 541.313 29.7862 541.507 29.2511C541.706 28.7108 541.806 28.0891 541.806 27.3861C541.806 26.6884 541.709 26.0746 541.514 25.5447C541.32 25.0149 541.034 24.6004 540.657 24.3014C540.279 24.0024 539.815 23.8529 539.264 23.8529C538.718 23.8529 538.257 23.9971 537.879 24.2857C537.506 24.5742 537.221 24.9834 537.021 25.5133C536.822 26.0431 536.722 26.6674 536.722 27.3861ZM553.417 33.6658C552.174 33.6658 551.104 33.4139 550.207 32.9103C549.315 32.4014 548.628 31.6827 548.145 30.7542C547.662 29.8203 547.421 28.716 547.421 27.4412C547.421 26.1979 547.662 25.1067 548.145 24.1676C548.628 23.2286 549.307 22.4967 550.183 21.9721C551.064 21.4475 552.098 21.1852 553.283 21.1852C554.081 21.1852 554.823 21.3137 555.51 21.5708C556.203 21.8226 556.806 22.2029 557.32 22.7118C557.84 23.2207 558.244 23.8607 558.532 24.6319C558.821 25.3978 558.965 26.2949 558.965 27.3232V28.2439H548.759V26.1664H555.809C555.809 25.6838 555.705 25.2562 555.495 24.8837C555.285 24.5112 554.994 24.2201 554.621 24.0102C554.254 23.7951 553.826 23.6876 553.339 23.6876C552.83 23.6876 552.378 23.8056 551.985 24.0417C551.597 24.2725 551.293 24.5847 551.072 24.9781C550.852 25.3664 550.739 25.7992 550.734 26.2766V28.2517C550.734 28.8498 550.844 29.3665 551.064 29.802C551.29 30.2374 551.607 30.5732 552.017 30.8092C552.426 31.0453 552.911 31.1634 553.472 31.1634C553.845 31.1634 554.186 31.1109 554.495 31.006C554.805 30.901 555.07 30.7437 555.29 30.5338C555.51 30.324 555.678 30.0669 555.794 29.7626L558.894 29.9672C558.737 30.7122 558.414 31.3627 557.926 31.9188C557.444 32.4696 556.819 32.8998 556.053 33.2093C555.293 33.5136 554.414 33.6658 553.417 33.6658ZM552.001 19.7845L553.669 16.204H556.77L554.369 19.7845H552.001ZM561.596 33.4297V21.3426H564.791V23.4751H564.932C565.184 22.7669 565.604 22.2082 566.191 21.799C566.779 21.3898 567.482 21.1852 568.3 21.1852C569.129 21.1852 569.835 21.3924 570.417 21.8069C571 22.2161 571.388 22.7721 571.582 23.4751H571.708C571.954 22.7826 572.4 22.2292 573.046 21.8147C573.696 21.395 574.465 21.1852 575.351 21.1852C576.479 21.1852 577.395 21.5445 578.098 22.2633C578.806 22.9767 579.16 23.9893 579.16 25.3008V33.4297H575.816V25.9618C575.816 25.2903 575.637 24.7867 575.28 24.4509C574.924 24.1152 574.478 23.9473 573.943 23.9473C573.334 23.9473 572.859 24.1414 572.518 24.5296C572.177 24.9126 572.007 25.4188 572.007 26.0484V33.4297H568.757V25.891C568.757 25.2982 568.586 24.826 568.245 24.4745C567.91 24.123 567.466 23.9473 566.915 23.9473C566.543 23.9473 566.207 24.0417 565.908 24.2306C565.614 24.4142 565.381 24.6739 565.208 25.0096C565.035 25.3401 564.948 25.7283 564.948 26.1743V33.4297H561.596ZM584.211 33.6343C583.691 33.6343 583.245 33.4507 582.873 33.0834C582.506 32.711 582.322 32.265 582.322 31.7457C582.322 31.2316 582.506 30.7909 582.873 30.4236C583.245 30.0564 583.691 29.8728 584.211 29.8728C584.714 29.8728 585.155 30.0564 585.533 30.4236C585.91 30.7909 586.099 31.2316 586.099 31.7457C586.099 32.0919 586.01 32.4093 585.832 32.6979C585.658 32.9811 585.43 33.2093 585.147 33.3825C584.864 33.5503 584.552 33.6343 584.211 33.6343Z" fill="#545353"/>
</svg>
