<svg width="24" height="26" viewBox="0 0 24 26" fill="none" xmlns="http://www.w3.org/2000/svg">
<g id="briefcase">
<path id="Vector" d="M20 7.44629H4C2.89543 7.44629 2 8.3988 2 9.57378V20.2112C2 21.3862 2.89543 22.3387 4 22.3387H20C21.1046 22.3387 22 21.3862 22 20.2112V9.57378C22 8.3988 21.1046 7.44629 20 7.44629Z" stroke="#545353" stroke-width="2" stroke-linecap="round" stroke-linejoin="round"/>
<path id="Vector_2" d="M16 22.3386V5.31865C16 4.75441 15.7893 4.21327 15.4142 3.81429C15.0391 3.41531 14.5304 3.19116 14 3.19116H10C9.46957 3.19116 8.96086 3.41531 8.58579 3.81429C8.21071 4.21327 8 4.75441 8 5.31865V22.3386" stroke="#545353" stroke-width="2" stroke-linecap="round" stroke-linejoin="round"/>
</g>
</svg>
