<svg width="22" height="23" viewBox="0 0 22 23" fill="none" xmlns="http://www.w3.org/2000/svg">
<path id="Vector" d="M21 10.6622L11.81 19.8522C10.6841 20.9781 9.15717 21.6106 7.56498 21.6106C5.9728 21.6106 4.44583 20.9781 3.31998 19.8522C2.19414 18.7264 1.56165 17.1994 1.56165 15.6072C1.56165 14.015 2.19414 12.4881 3.31998 11.3622L12.51 2.17222C13.2605 1.42166 14.2785 1 15.34 1C16.4014 1 17.4194 1.42166 18.17 2.17222C18.9205 2.92279 19.3422 3.94077 19.3422 5.00222C19.3422 6.06368 18.9205 7.08166 18.17 7.83222L8.96998 17.0222C8.5947 17.3975 8.08571 17.6083 7.55498 17.6083C7.02425 17.6083 6.51526 17.3975 6.13998 17.0222C5.7647 16.6469 5.55387 16.138 5.55387 15.6072C5.55387 15.0765 5.7647 14.5675 6.13998 14.1922L14.63 5.71222" stroke="#545353" stroke-width="2" stroke-linecap="round" stroke-linejoin="round"/>
</svg>
