<svg width="24" height="26" viewBox="0 0 24 26" fill="none" xmlns="http://www.w3.org/2000/svg">
<g id="tool">
<path id="Vector" d="M14.7 6.70151C14.5168 6.90036 14.4142 7.1677 14.4142 7.44613C14.4142 7.72457 14.5168 7.99191 14.7 8.19076L16.3 9.89275C16.4869 10.0877 16.7383 10.1968 17 10.1968C17.2618 10.1968 17.5131 10.0877 17.7 9.89275L21.47 5.88243C21.9728 7.06445 22.1251 8.38142 21.9065 9.65782C21.6878 10.9342 21.1087 12.1094 20.2463 13.0268C19.3839 13.9442 18.2791 14.5603 17.0792 14.7928C15.8792 15.0254 14.6412 14.8635 13.53 14.3286L6.62001 21.679C6.22218 22.1022 5.68262 22.34 5.12001 22.34C4.5574 22.34 4.01783 22.1022 3.62001 21.679C3.22218 21.2559 2.99869 20.6819 2.99869 20.0834C2.99869 19.485 3.22218 18.911 3.62001 18.4878L10.53 11.1373C10.0272 9.95531 9.87492 8.63834 10.0936 7.36194C10.3122 6.08554 10.8913 4.91033 11.7537 3.99292C12.6162 3.07551 13.721 2.45948 14.9209 2.22691C16.1208 1.99435 17.3588 2.15631 18.47 2.69119L14.71 6.69088L14.7 6.70151Z" stroke="#545353" stroke-width="2" stroke-linecap="round" stroke-linejoin="round"/>
</g>
</svg>
