<svg width="1198" height="60" viewBox="0 0 1198 60" fill="none" xmlns="http://www.w3.org/2000/svg">
<rect width="1198" height="60" rx="10" fill="#F5F5F5"/>
<rect x="229" y="12" width="741" height="37" rx="10" fill="#E0E0E0"/>
<path d="M1170.01 29.542H1166.94C1165.42 29.542 1164.68 28.8662 1164.68 27.4692V24.022C1164.68 22.625 1165.42 21.9492 1166.94 21.9492H1170.01C1171.54 21.9492 1172.27 22.625 1172.27 24.022V27.4616C1172.27 28.8662 1171.53 29.542 1170.01 29.542ZM1166.94 23.0881C1165.93 23.0881 1165.82 23.3767 1165.82 24.022V27.4616C1165.82 28.1145 1165.93 28.3955 1166.94 28.3955H1170.01C1171.03 28.3955 1171.13 28.1069 1171.13 27.4616V24.022C1171.13 23.3691 1171.03 23.0881 1170.01 23.0881H1166.94Z" fill="#292D32"/>
<path d="M1170.01 38.2732H1166.94C1165.42 38.2732 1164.68 37.5291 1164.68 36.0105V32.9431C1164.68 31.4169 1165.42 30.6804 1166.94 30.6804H1170.01C1171.54 30.6804 1172.27 31.4245 1172.27 32.9431V36.0105C1172.27 37.5291 1171.53 38.2732 1170.01 38.2732ZM1166.94 31.8193C1166.05 31.8193 1165.82 32.0471 1165.82 32.9431V36.0105C1165.82 36.9065 1166.05 37.1343 1166.94 37.1343H1170.01C1170.91 37.1343 1171.13 36.9065 1171.13 36.0105V32.9431C1171.13 32.0471 1170.91 31.8193 1170.01 31.8193H1166.94Z" fill="#292D32"/>
<path d="M1161.28 29.542H1158.21C1156.69 29.542 1155.95 28.8662 1155.95 27.4692V24.022C1155.95 22.625 1156.69 21.9492 1158.21 21.9492H1161.28C1162.81 21.9492 1163.54 22.625 1163.54 24.022V27.4616C1163.54 28.8662 1162.8 29.542 1161.28 29.542ZM1158.21 23.0881C1157.19 23.0881 1157.09 23.3767 1157.09 24.022V27.4616C1157.09 28.1145 1157.19 28.3955 1158.21 28.3955H1161.28C1162.3 28.3955 1162.4 28.1069 1162.4 27.4616V24.022C1162.4 23.3691 1162.3 23.0881 1161.28 23.0881H1158.21Z" fill="#292D32"/>
<path d="M1161.28 38.2732H1158.21C1156.69 38.2732 1155.95 37.5291 1155.95 36.0105V32.9431C1155.95 31.4169 1156.69 30.6804 1158.21 30.6804H1161.28C1162.81 30.6804 1163.54 31.4245 1163.54 32.9431V36.0105C1163.54 37.5291 1162.8 38.2732 1161.28 38.2732ZM1158.21 31.8193C1157.32 31.8193 1157.09 32.0471 1157.09 32.9431V36.0105C1157.09 36.9065 1157.32 37.1343 1158.21 37.1343H1161.28C1162.18 37.1343 1162.4 36.9065 1162.4 36.0105V32.9431C1162.4 32.0471 1162.18 31.8193 1161.28 31.8193H1158.21Z" fill="#292D32"/>
<path d="M167.667 39.0105H161.333C158.444 39.0105 156.781 37.348 156.781 34.4584V26.5417C156.781 23.6521 158.444 21.9896 161.333 21.9896H167.667C170.556 21.9896 172.219 23.6521 172.219 26.5417V34.4584C172.219 37.348 170.556 39.0105 167.667 39.0105ZM161.333 23.1771C159.069 23.1771 157.969 24.2775 157.969 26.5417V34.4584C157.969 36.7225 159.069 37.823 161.333 37.823H167.667C169.931 37.823 171.031 36.7225 171.031 34.4584V26.5417C171.031 24.2775 169.931 23.1771 167.667 23.1771H161.333Z" fill="#292D32"/>
<path d="M169.646 28.323H168.063C166.859 28.323 165.886 27.3493 165.886 26.146V24.5626C165.886 24.238 166.155 23.9689 166.479 23.9689C166.804 23.9689 167.073 24.238 167.073 24.5626V26.146C167.073 26.6922 167.516 27.1355 168.063 27.1355H169.646C169.971 27.1355 170.24 27.4047 170.24 27.7293C170.24 28.0539 169.971 28.323 169.646 28.323Z" fill="#292D32"/>
<path d="M164.5 31.8853H161.333C161.009 31.8853 160.74 31.6161 160.74 31.2915C160.74 30.9669 161.009 30.6978 161.333 30.6978H164.5C164.825 30.6978 165.094 30.9669 165.094 31.2915C165.094 31.6161 164.825 31.8853 164.5 31.8853Z" fill="#292D32"/>
<path d="M167.667 35.052H161.333C161.009 35.052 160.74 34.7828 160.74 34.4583C160.74 34.1337 161.009 33.8645 161.333 33.8645H167.667C167.991 33.8645 168.26 34.1337 168.26 34.4583C168.26 34.7828 167.991 35.052 167.667 35.052Z" fill="#292D32"/>
<path d="M195.786 36.6942C195.642 36.6942 195.498 36.6411 195.384 36.5272L190.433 31.5767C189.628 30.7719 189.628 29.4507 190.433 28.6459L195.384 23.6954C195.604 23.4752 195.968 23.4752 196.189 23.6954C196.409 23.9156 196.409 24.2801 196.189 24.5002L191.238 29.4507C190.874 29.8152 190.874 30.4074 191.238 30.7719L196.189 35.7223C196.409 35.9425 196.409 36.307 196.189 36.5272C196.075 36.6335 195.93 36.6942 195.786 36.6942Z" fill="#292D32"/>
<path d="M214.231 23.3058C214.376 23.3058 214.52 23.3589 214.634 23.4728L219.584 28.4233C220.389 29.2281 220.389 30.5493 219.584 31.3541L214.634 36.3046C214.414 36.5248 214.049 36.5248 213.829 36.3046C213.609 36.0844 213.609 35.7199 213.829 35.4998L218.779 30.5493C219.144 30.1848 219.144 29.5926 218.779 29.2281L213.829 24.2777C213.609 24.0575 213.609 23.693 213.829 23.4728C213.943 23.3665 214.087 23.3058 214.231 23.3058Z" fill="#292D32"/>
<path d="M22.0002 36.5C18.4135 36.5 15.5002 33.5867 15.5002 30C15.5002 26.4133 18.4135 23.5 22.0002 23.5C25.5869 23.5 28.5002 26.4133 28.5002 30C28.5002 33.5867 25.5869 36.5 22.0002 36.5ZM22.0002 24.5C18.9668 24.5 16.5002 26.9667 16.5002 30C16.5002 33.0333 18.9668 35.5 22.0002 35.5C25.0335 35.5 27.5002 33.0333 27.5002 30C27.5002 26.9667 25.0335 24.5 22.0002 24.5Z" fill="#292D32"/>
<path d="M42.0002 36.5C38.4135 36.5 35.5002 33.5867 35.5002 30C35.5002 26.4133 38.4135 23.5 42.0002 23.5C45.5869 23.5 48.5002 26.4133 48.5002 30C48.5002 33.5867 45.5869 36.5 42.0002 36.5ZM42.0002 24.5C38.9668 24.5 36.5002 26.9667 36.5002 30C36.5002 33.0333 38.9668 35.5 42.0002 35.5C45.0335 35.5 47.5002 33.0333 47.5002 30C47.5002 26.9667 45.0335 24.5 42.0002 24.5Z" fill="#292D32"/>
<path d="M62.0002 36.5C58.4135 36.5 55.5002 33.5867 55.5002 30C55.5002 26.4133 58.4135 23.5 62.0002 23.5C65.5869 23.5 68.5002 26.4133 68.5002 30C68.5002 33.5867 65.5869 36.5 62.0002 36.5ZM62.0002 24.5C58.9668 24.5 56.5002 26.9667 56.5002 30C56.5002 33.0333 58.9668 35.5 62.0002 35.5C65.0335 35.5 67.5002 33.0333 67.5002 30C67.5002 26.9667 65.0335 24.5 62.0002 24.5Z" fill="#292D32"/>
</svg>
